<?xml version="1.0" encoding="UTF-8"?>
<svg width="64px" height="64px" viewBox="0 0 64 64" version="1.1" xmlns="http://www.w3.org/2000/svg" xmlns:xlink="http://www.w3.org/1999/xlink">
    <title>设置</title>
    <g id="--------图标" stroke="none" stroke-width="1" fill="none" fill-rule="evenodd">
        <g id="设置">
            <rect id="矩形备份-3" x="0" y="0" width="64" height="64"></rect>
            <g id="形状-3" transform="translate(8.000000, 6.500000)" fill="#666666" fill-rule="nonzero">
                <g id="形状-2">
                    <path d="M47.3666386,31.9813845 L43.6614428,28.793887 C44.0145253,26.6140435 44.0145253,24.3910929 43.6614428,22.2112494 L47.3666386,19.0237519 C47.9391198,18.5308509 48.148281,17.732889 47.891813,17.0201821 L47.8411066,16.8744679 C46.8211284,14.0055373 45.2934333,11.3459095 43.3318505,9.02411699 L43.2304376,8.9039028 C42.7424622,8.32757882 41.9518861,8.11322102 41.2420187,8.36476038 L36.6422153,10.0076877 C34.9527072,8.61102003 33.046289,7.50337784 30.999307,6.72911881 L30.1119434,1.89140838 C29.9747488,1.14657969 29.3935369,0.564905173 28.6523207,0.430623833 L28.4965794,0.401480989 C25.5200497,-0.133826996 22.4727066,-0.133826996 19.4961769,0.401480989 L19.3440574,0.430623833 C18.6028412,0.564905173 18.0216293,1.14657969 17.8844347,1.89140838 L16.9898273,6.7546188 C14.9575978,7.52787777 13.064893,8.6304495 11.3867598,10.0186162 L6.75073756,8.36476038 C6.04200779,8.11272676 5.25215984,8.32727794 4.76594055,8.9039028 L4.66452758,9.02411699 C2.70664076,11.3478988 1.18044727,14.0070482 0.15889344,16.8744679 L0.108186978,17.0201821 C-0.146111521,17.7329852 0.0627205943,18.5296915 0.633361367,19.0237519 L4.38564186,22.247678 C4.03387432,24.3995159 4.03387432,26.594692 4.38564186,28.7465299 L0.633361367,31.9668131 C0.0608802427,32.4597141 -0.148281005,33.257676 0.108186978,33.9703829 L0.15889344,34.11974 C1.17868628,36.9890827 2.70503237,39.6497321 4.66452758,41.9737337 L4.76594055,42.0939479 C5.25331577,42.6687384 6.04192716,42.8829537 6.75073756,42.6330903 L11.3867598,40.9755916 C13.0632099,42.367114 14.9562834,43.4711312 16.9898273,44.2432319 L17.8844347,49.1064423 C18.0216293,49.851271 18.6028412,50.4329455 19.3440574,50.5672269 L19.4961769,50.5963697 C22.4724532,51.1345434 25.5203031,51.1345434 28.4965794,50.5963697 L28.6486988,50.5672269 C29.389915,50.4329455 29.9711269,49.851271 30.1083215,49.1064423 L30.9956851,44.265089 C33.0437179,43.4930662 34.9504864,42.3852205 36.6385934,40.9865202 L41.2383968,42.6330903 C41.9481809,42.8868102 42.7400019,42.6721148 43.2268157,42.0939479 L43.3282286,41.9737337 C45.2874036,39.6502346 46.8148339,36.9910679 47.8374847,34.1233828 L47.8881911,33.9776686 C48.1417997,33.2682237 47.9327299,32.4749612 47.3630167,31.9850274 L47.3666386,31.9813845 Z M39.7619769,22.8648655 C40.0491484,24.6151126 40.0491484,26.400868 39.7619769,28.1511151 L39.386039,30.4528362 L43.6454522,34.1165009 C43.0030728,35.6142716 42.185499,37.0239382 41.2182801,38.3381586 L35.92595,36.4512611 L34.1338576,37.9306768 C32.7724513,39.0576759 31.2504502,39.9387175 29.6080029,40.5591176 L27.4399726,41.3777521 L26.4180054,46.9429982 C24.8120569,47.1265485 23.1769094,47.1265485 21.570961,46.9429982 L20.5489938,41.3667391 L18.395563,40.5370916 C16.7668761,39.9157561 15.2503542,39.0303387 13.9062071,37.9159928 L12.1177646,36.4292351 L6.7889357,38.3344875 C5.82327805,37.0237651 5.0078397,35.6075769 4.35811376,34.1128299 L8.66497544,30.4124551 L8.29268741,28.118076 C8.0051188,26.3900379 8.0051188,24.6259426 8.29268741,22.8979045 L8.66497544,20.6035253 L4.35811376,16.9031507 C5.004143,15.4053799 5.81806686,13.9957134 6.7889357,12.6814929 L12.1177646,14.5867454 L13.9062071,13.0999877 C15.2566638,11.9840017 16.7677152,11.0992891 18.395563,10.478889 L20.5562936,9.66025449 L21.5782608,4.08399536 C23.1769094,3.90044501 24.8157068,3.90044501 26.4216552,4.08399536 L27.4436225,9.64924146 L29.6153027,10.467876 C31.2541001,11.0882761 32.7761012,11.9729887 34.1411574,13.0963167 L35.9295999,14.5757324 L41.22193,12.688835 C42.1927988,14.0030553 43.0030728,15.4200639 43.6527519,16.9104926 L39.3933387,20.5741573 L39.7619769,22.8648655 L39.7619769,22.8648655 Z M24.0054328,15.54 C20.4469946,15.54 17.1588621,17.4383652 15.379643,20.52 C13.6004239,23.6016347 13.6004239,27.3983653 15.379643,30.48 C17.1588621,33.5616348 20.4469946,35.46 24.0054328,35.46 C29.5063016,35.46 33.9656367,31.0007561 33.9656367,25.5 C33.9656367,19.9992439 29.5063016,15.54 24.0054328,15.54 L24.0054328,15.54 Z M28.4893356,29.9814742 C27.2868674,31.1770171 25.7004785,31.84 24.0054328,31.84 C22.3140091,31.84 20.7239983,31.1770171 19.525152,29.9814742 C18.3342653,28.7944995 17.6655646,27.1816282 17.6671185,25.5 C17.6671185,23.8081257 18.3299275,22.2140686 19.525152,21.0149028 C20.7203764,19.8157371 22.3140091,19.16 24.0054328,19.16 C25.6968566,19.16 27.2868674,19.8157371 28.4893356,21.0149028 C29.6845601,22.2176914 30.3437445,23.8045028 30.3437445,25.5 C30.3437445,27.1918743 29.6809382,28.7823086 28.4893356,29.9814742 L28.4893356,29.9814742 Z" id="形状"></path>
                </g>
            </g>
        </g>
    </g>
</svg>