<?xml version="1.0" standalone="no"?><!DOCTYPE svg PUBLIC "-//W3C//DTD SVG 1.1//EN" "http://www.w3.org/Graphics/SVG/1.1/DTD/svg11.dtd"><svg t="1697700146044" class="icon" viewBox="0 0 1024 1024" version="1.1" xmlns="http://www.w3.org/2000/svg" p-id="19546" xmlns:xlink="http://www.w3.org/1999/xlink" width="200" height="200"><path d="M872.802928 755.99406 872.864326 755.99406 872.864326 755.624646Z" fill="#272536" p-id="19547"></path><path d="M922.268526 475.740168c-10.490935-10.727319-28.947286-10.815323-39.587624-0.366344l-18.368346 18.059308c-9.727549-206.461235-177.482227-367.192963-384.91458-367.192963-212.706473 0-385.751644 173.045171-385.751644 385.752668 0 212.720799 173.045171 385.766994 385.751644 385.766994 113.354698 0 220.62891-50.167586 293.924239-137.161916 3.2623-2.495844 5.907547-5.494131 7.907087-8.875135 0.26606-0.322341 0.557702-0.64673 0.853437-0.940418l1.880837-2.998287-0.618077-0.322341c1.26276-3.321652 1.851161-6.5246 1.851161-9.815553 0-16.077164-13.049201-29.155017-29.124318-29.155017-9.66922 0-18.721387 5.142114-23.982204 13.489222-62.806441 75.444273-154.911162 118.734218-252.691139 118.734218-181.244924 0-328.751443-147.447167-328.751443-328.721767 0-181.231621 147.506519-328.72279 328.751443-328.72279 180.070168 0 326.782601 145.509025 328.693114 325.122799l-32.709983-32.813337c-10.552334-10.623965-29.036313-10.653641-39.588647-0.086981-10.991332 10.933003-10.991332 28.712949-0.059352 39.660278l69.064982 69.226664c5.262864 5.320169 12.31549 8.229428 19.778462 8.229428l0.324388-0.028653 0.733711 0.23536c1.589195 0.38067 3.321652 0.851391 5.232165 0.851391 7.375991 0 14.34266-2.849908 19.633153-8.022721l71.445192-70.300113c5.348821-5.246491 8.346085-12.31549 8.405437-19.808138C930.410973 488.069985 927.529343 481.059314 922.268526 475.740168" fill="#231F20" p-id="19548"></path></svg>